<?xml version="1.0" standalone="no"?>
<!DOCTYPE svg PUBLIC "-//W3C//DTD SVG 20010904//EN"
 "http://www.w3.org/TR/2001/REC-SVG-20010904/DTD/svg10.dtd">
<svg version="1.0" xmlns="http://www.w3.org/2000/svg"
 width="866.000000pt" height="649.000000pt" viewBox="0 0 866.000000 649.000000"
 preserveAspectRatio="xMidYMid meet">

<g transform="translate(0.000000,649.000000) scale(0.100000,-0.100000)"
fill="#000000" stroke="none">
<path d="M2166 3423 c37 -70 107 -193 155 -273 87 -145 87 -145 127 -148 l39
-3 77 125 c42 68 95 160 117 203 23 43 59 111 81 151 l39 72 -73 0 -73 0 -35
-62 c-19 -35 -64 -114 -100 -176 l-66 -112 -105 172 -105 173 -73 3 -73 3 68
-128z"/>
<path d="M3155 3396 c-136 -63 -185 -220 -108 -345 55 -89 185 -137 305 -112
57 12 118 45 125 68 3 7 -13 31 -34 53 l-38 41 -40 -21 c-21 -11 -52 -20 -67
-20 -41 0 -94 25 -108 49 -11 21 -10 21 160 21 l170 0 0 55 c0 64 -15 106 -56
154 -66 79 -207 105 -309 57z m179 -117 c14 -11 26 -29 26 -40 0 -17 -8 -19
-90 -19 -100 0 -111 9 -65 55 31 32 91 34 129 4z"/>
<path d="M3945 3406 c-17 -7 -39 -21 -48 -30 -16 -16 -17 -16 -17 8 0 26 -1
26 -80 26 l-80 0 0 -235 0 -236 83 3 82 3 5 138 c5 137 5 139 33 163 21 18 40
24 73 24 l44 0 0 75 0 75 -32 0 c-18 -1 -47 -7 -63 -14z"/>
<path d="M4370 3411 c-80 -25 -149 -92 -170 -167 -28 -98 14 -211 97 -264 93
-59 229 -62 314 -5 33 21 77 81 67 90 -2 1 -30 16 -63 33 l-60 30 -26 -29
c-34 -37 -95 -40 -134 -6 -52 44 -42 152 16 182 48 26 100 13 135 -33 9 -12
20 -9 72 17 34 17 62 35 62 40 0 22 -58 76 -105 97 -52 25 -150 31 -205 15z"/>
<path d="M5796 3395 c-44 -23 -46 -24 -46 -5 0 18 -7 20 -80 20 l-80 0 0 -235
0 -236 83 3 82 3 5 135 c3 74 9 142 13 151 11 23 51 39 97 39 l40 0 0 75 0 75
-34 0 c-18 0 -54 -11 -80 -25z"/>
<path d="M6210 3399 c-98 -44 -150 -121 -150 -222 0 -123 86 -216 221 -239 75
-12 154 0 207 32 49 30 50 46 6 91 l-39 39 -40 -20 c-22 -11 -52 -20 -67 -20
-41 0 -94 25 -108 49 -11 21 -10 21 160 21 l170 0 0 55 c0 97 -47 171 -135
211 -66 31 -161 32 -225 3z m174 -120 c14 -11 26 -29 26 -40 0 -17 -8 -19 -90
-19 -100 0 -111 9 -65 55 31 32 91 34 129 4z"/>
<path d="M4862 3247 c3 -148 6 -166 28 -212 33 -67 89 -98 174 -99 45 -1 70 5
98 21 35 21 36 21 41 2 4 -17 15 -19 81 -19 l76 0 0 235 0 235 -79 0 -79 0 -4
-139 c-3 -131 -4 -141 -27 -165 -31 -33 -89 -36 -117 -5 -16 18 -19 40 -22
165 l-3 144 -86 0 -85 0 4 -163z"/>
<path d="M2794 3299 c-6 -8 -30 -50 -54 -94 -24 -44 -57 -100 -72 -124 -21
-33 -28 -58 -28 -93 l0 -48 80 0 c57 0 82 4 86 13 2 7 3 91 2 186 -2 129 -6
170 -14 160z"/>
<path d="M2100 3123 l0 -183 80 0 80 0 0 43 c-1 34 -16 69 -80 182 l-80 140 0
-182z"/>
</g>
</svg>
